<svg width="15" height="17" viewBox="0 0 15 17" fill="none" xmlns="http://www.w3.org/2000/svg">
<path d="M12.753 2.0982H9.43136C9.09761 1.17641 8.2235 0.508911 7.19046 0.508911C6.15743 0.508911 5.28332 1.17641 4.94957 2.0982H1.62797C0.753859 2.0982 0.038681 2.81337 0.038681 3.68748V14.8125C0.038681 15.6866 0.753859 16.4018 1.62797 16.4018H12.753C13.6271 16.4018 14.3422 15.6866 14.3422 14.8125V3.68748C14.3422 2.81337 13.6271 2.0982 12.753 2.0982ZM7.19046 2.0982C7.62752 2.0982 7.98511 2.45579 7.98511 2.89284C7.98511 3.32989 7.62752 3.68748 7.19046 3.68748C6.75341 3.68748 6.39582 3.32989 6.39582 2.89284C6.39582 2.45579 6.75341 2.0982 7.19046 2.0982ZM7.19046 5.27677C8.50957 5.27677 9.57439 6.34159 9.57439 7.66069C9.57439 8.9798 8.50957 10.0446 7.19046 10.0446C5.87136 10.0446 4.80654 8.9798 4.80654 7.66069C4.80654 6.34159 5.87136 5.27677 7.19046 5.27677ZM11.9583 14.8125H2.42261V13.7C2.42261 12.1107 5.60118 11.2366 7.19046 11.2366C8.77975 11.2366 11.9583 12.1107 11.9583 13.7V14.8125Z" fill="#404245"/>
</svg>
